<svg width="18" height="18" viewBox="0 0 18 18" fill="none" xmlns="http://www.w3.org/2000/svg">
<path d="M12.4915 0.666504H5.50817C2.47484 0.666504 0.666504 2.47484 0.666504 5.50817V12.4832C0.666504 15.5248 2.47484 17.3332 5.50817 17.3332H12.4832C15.5165 17.3332 17.3248 15.5248 17.3248 12.4915V5.50817C17.3332 2.47484 15.5248 0.666504 12.4915 0.666504ZM11.7998 10.9165C12.0415 11.1582 12.0415 11.5582 11.7998 11.7998C11.6748 11.9248 11.5165 11.9832 11.3582 11.9832C11.1998 11.9832 11.0415 11.9248 10.9165 11.7998L8.99984 9.88317L7.08317 11.7998C6.95817 11.9248 6.79984 11.9832 6.6415 11.9832C6.48317 11.9832 6.32484 11.9248 6.19984 11.7998C5.95817 11.5582 5.95817 11.1582 6.19984 10.9165L8.1165 8.99984L6.19984 7.08317C5.95817 6.8415 5.95817 6.4415 6.19984 6.19984C6.4415 5.95817 6.8415 5.95817 7.08317 6.19984L8.99984 8.1165L10.9165 6.19984C11.1582 5.95817 11.5582 5.95817 11.7998 6.19984C12.0415 6.4415 12.0415 6.8415 11.7998 7.08317L9.88317 8.99984L11.7998 10.9165Z" fill="#292929"/>
</svg>
