<svg width="24" height="25" viewBox="0 0 24 25" fill="none" xmlns="http://www.w3.org/2000/svg">
<path d="M16.25 22.6035C17.2165 22.6035 18 21.82 18 20.8535C18 19.887 17.2165 19.1035 16.25 19.1035C15.2835 19.1035 14.5 19.887 14.5 20.8535C14.5 21.82 15.2835 22.6035 16.25 22.6035Z" fill="white"/>
<path d="M8.25 22.6035C9.2165 22.6035 10 21.82 10 20.8535C10 19.887 9.2165 19.1035 8.25 19.1035C7.2835 19.1035 6.5 19.887 6.5 20.8535C6.5 21.82 7.2835 22.6035 8.25 22.6035Z" fill="white"/>
<path opacity="0.4" d="M4.84 4.04352L4.64 6.49352C4.6 6.96351 4.97 7.35352 5.44 7.35352H20.75C21.17 7.35352 21.52 7.03351 21.55 6.61351C21.68 4.84351 20.33 3.40352 18.56 3.40352H6.28999C6.18999 2.96352 5.98999 2.54351 5.67999 2.19351C5.18999 1.66351 4.49 1.35352 3.77 1.35352H2C1.59 1.35352 1.25 1.69352 1.25 2.10352C1.25 2.51352 1.59 2.85352 2 2.85352H3.74001C4.05001 2.85352 4.34 2.98352 4.55 3.20352C4.76 3.43352 4.86 3.73352 4.84 4.04352Z" fill="white"/>
<path d="M20.5101 8.85352H5.17006C4.75006 8.85352 4.41005 9.17351 4.37005 9.58351L4.01005 13.9335C3.87005 15.6335 5.21006 17.1035 6.92006 17.1035H18.0401C19.5401 17.1035 20.8601 15.8735 20.9701 14.3735L21.3001 9.70352C21.3401 9.24352 20.9801 8.85352 20.5101 8.85352Z" fill="white"/>
</svg>
