<svg width="18" height="19" viewBox="0 0 18 19" fill="none" xmlns="http://www.w3.org/2000/svg">
<path fill-rule="evenodd" clip-rule="evenodd" d="M1.08333 0.833496C0.623096 0.833496 0.25 1.20659 0.25 1.66683C0.25 2.12707 0.623096 2.50016 1.08333 2.50016C1.69035 2.50016 2.22066 2.94123 2.32984 3.56183L2.90141 6.81074L2.90192 6.81361L3.26813 8.86023C3.49716 10.1403 3.68006 11.1625 3.9113 11.9745C4.14977 12.8119 4.45884 13.5009 4.98376 14.0832C5.3443 14.4831 5.76614 14.8255 6.23364 15.0987C6.91088 15.4945 7.65747 15.6688 8.54511 15.7522C9.40987 15.8335 10.4817 15.8335 11.8319 15.8335H12.2424C12.8429 15.8335 13.338 15.8335 13.7459 15.8038C14.1708 15.7729 14.5575 15.707 14.9327 15.5471C15.4799 15.3138 15.9591 14.9471 16.3221 14.4792C16.5727 14.1561 16.7291 13.7999 16.8574 13.402C16.9798 13.0223 17.0915 12.5543 17.2256 11.992L17.2425 11.9211C17.4465 11.0664 17.6131 10.3681 17.6937 9.79788C17.7767 9.21116 17.7858 8.65933 17.5969 8.12742C17.3313 7.37967 16.8086 6.75015 16.1246 6.34004C15.6428 6.05114 15.098 5.9381 14.4935 5.88516C13.9033 5.83348 13.1638 5.83349 12.2512 5.8335H4.42175L3.9713 3.27306C3.72412 1.86803 2.51195 0.833496 1.08333 0.833496ZM12.2122 7.50016C13.173 7.50016 13.8393 7.50092 14.3481 7.54547C14.851 7.58952 15.1024 7.67043 15.2676 7.76946C15.628 7.98556 15.8934 8.31093 16.0264 8.68525C16.0843 8.84844 16.1108 9.08855 16.0435 9.56441C15.9751 10.0479 15.8276 10.6698 15.6118 11.5745C15.4684 12.1754 15.3713 12.58 15.2711 12.8906C15.1746 13.19 15.0921 13.3456 15.0052 13.4576C14.8193 13.6973 14.57 13.8899 14.2791 14.0139C14.139 14.0736 13.955 14.1176 13.6249 14.1416C13.2847 14.1663 12.8504 14.1668 12.2122 14.1668H11.874C10.4724 14.1668 9.47878 14.166 8.70108 14.0929C7.93732 14.0211 7.45978 13.8849 7.0746 13.6598C6.75362 13.4722 6.46605 13.2383 6.22168 12.9672C5.93152 12.6454 5.71522 12.2238 5.51424 11.518C5.30866 10.7961 5.13956 9.85667 4.90092 8.52298L4.7179 7.50016H12.2122Z" fill="black" style="fill:black;fill-opacity:1;"/>
<path d="M7.75 17.2918C7.75 17.8671 7.28363 18.3335 6.70833 18.3335C6.13304 18.3335 5.66667 17.8671 5.66667 17.2918C5.66667 16.7165 6.13304 16.2502 6.70833 16.2502C7.28363 16.2502 7.75 16.7165 7.75 17.2918Z" fill="black" style="fill:black;fill-opacity:1;"/>
<path d="M14.2083 18.3335C14.7836 18.3335 15.25 17.8671 15.25 17.2918C15.25 16.7165 14.7836 16.2502 14.2083 16.2502C13.633 16.2502 13.1667 16.7165 13.1667 17.2918C13.1667 17.8671 13.633 18.3335 14.2083 18.3335Z" fill="black" style="fill:black;fill-opacity:1;"/>
</svg>
