<svg width="18" height="19" viewBox="0 0 18 19" fill="none" xmlns="http://www.w3.org/2000/svg">
<path fill-rule="evenodd" clip-rule="evenodd" d="M5.66675 0.833313C6.12699 0.833313 6.50008 1.20641 6.50008 1.66665V2.49998H11.5001V1.66665C11.5001 1.20641 11.8732 0.833313 12.3334 0.833313C12.7937 0.833313 13.1667 1.20641 13.1667 1.66665V2.49998H14.0001C15.841 2.49998 17.3334 3.99236 17.3334 5.83331V15C17.3334 16.8409 15.841 18.3333 14.0001 18.3333H4.00008C2.15913 18.3333 0.666748 16.8409 0.666748 15V5.83331C0.666748 3.99236 2.15913 2.49998 4.00008 2.49998H4.83341V1.66665C4.83341 1.20641 5.20651 0.833313 5.66675 0.833313ZM11.5001 4.16665C11.5001 4.62688 11.8732 4.99998 12.3334 4.99998C12.7937 4.99998 13.1667 4.62688 13.1667 4.16665H14.0001C14.9206 4.16665 15.6667 4.91284 15.6667 5.83331V6.24998H2.33341V5.83331C2.33341 4.91284 3.07961 4.16665 4.00008 4.16665H4.83341C4.83341 4.62688 5.20651 4.99998 5.66675 4.99998C6.12699 4.99998 6.50008 4.62688 6.50008 4.16665H11.5001ZM15.6667 7.91665H2.33341V15C2.33341 15.9205 3.07961 16.6666 4.00008 16.6666H14.0001C14.9206 16.6666 15.6667 15.9205 15.6667 15V7.91665Z" fill="#344054" style="fill:#344054;fill:color(display-p3 0.2039 0.2510 0.3294);fill-opacity:1;"/>
</svg>
