<svg width="16" height="20" viewBox="0 0 16 20" fill="none" xmlns="http://www.w3.org/2000/svg">
<path fill-rule="evenodd" clip-rule="evenodd" d="M3.83333 2.49998C2.91286 2.49998 2.16667 3.24617 2.16667 4.16665V15.8333C2.16667 16.7538 2.91286 17.5 3.83333 17.5H5.5C5.96024 17.5 6.33333 17.8731 6.33333 18.3333C6.33333 18.7935 5.96024 19.1666 5.5 19.1666H3.83333C1.99238 19.1666 0.5 17.6743 0.5 15.8333V4.16665C0.5 2.3257 1.99238 0.833313 3.83333 0.833313H9.32906C10.3183 0.833313 11.2565 1.27272 11.8898 2.0327L14.7274 5.43782C15.2266 6.03687 15.5 6.79198 15.5 7.57177V15.8333C15.5 17.6743 14.0076 19.1666 12.1667 19.1666H10.5C10.0398 19.1666 9.66667 18.7935 9.66667 18.3333C9.66667 17.8731 10.0398 17.5 10.5 17.5H12.1667C13.0871 17.5 13.8333 16.7538 13.8333 15.8333V8.33331H12.1667C10.3257 8.33331 8.83333 6.84093 8.83333 4.99998V2.49998H3.83333ZM13.447 6.5048C13.4901 6.55653 13.5299 6.61059 13.5661 6.66665H12.1667C11.2462 6.66665 10.5 5.92045 10.5 4.99998V2.9806C10.5382 3.01831 10.5747 3.05803 10.6094 3.09967L13.447 6.5048Z" fill="#344054" style="fill:#344054;fill:color(display-p3 0.2039 0.2510 0.3294);fill-opacity:1;"/>
<path d="M9.80364 17.0117L8.55364 18.1228C8.2379 18.4035 7.7621 18.4035 7.44636 18.1228L6.19636 17.0117C5.85238 16.7059 5.82139 16.1792 6.12716 15.8352C6.39465 15.5343 6.83125 15.4729 7.16667 15.667V11.6666C7.16667 11.2064 7.53976 10.8333 8 10.8333C8.46024 10.8333 8.83333 11.2064 8.83333 11.6666V15.667C9.16875 15.4729 9.60535 15.5343 9.87284 15.8352C10.1786 16.1792 10.1476 16.7059 9.80364 17.0117Z" fill="#344054" style="fill:#344054;fill:color(display-p3 0.2039 0.2510 0.3294);fill-opacity:1;"/>
</svg>
