<svg width="32" height="32" viewBox="0 0 32 32" fill="none" xmlns="http://www.w3.org/2000/svg">
<path d="M27.6093 4.39052C28.13 4.91122 28.13 5.75544 27.6093 6.27614L6.27598 27.6095C5.75528 28.1302 4.91106 28.1302 4.39036 27.6095C3.86966 27.0888 3.86966 26.2446 4.39036 25.7239L25.7237 4.39052C26.2444 3.86983 27.0886 3.86983 27.6093 4.39052Z" fill="#F9FAFB"/>
<path d="M21.0659 7.16272C19.5641 6.4555 17.8709 6 15.9998 6C12.0744 6 8.93152 8.00492 6.69796 10.1329C4.45926 12.2658 3.00664 14.6396 2.43162 15.6664C2.05479 16.3393 2.00991 17.1428 2.31923 17.8565C2.53525 18.3549 2.90261 19.127 3.44408 20.023C3.82495 20.6532 4.64461 20.8553 5.27484 20.4745C5.90507 20.0936 6.10722 19.2739 5.72635 18.6437C5.29085 17.9231 4.98865 17.2999 4.80535 16.8859C5.34635 15.9324 6.62763 13.8831 8.53739 12.0636C10.51 10.1842 13.0265 8.66667 15.9998 8.66667C17.0692 8.66667 18.0795 8.86299 19.0267 9.20185L21.0659 7.16272Z" fill="#F9FAFB"/>
<path d="M23.5872 12.1838C25.4279 13.9726 26.6652 15.9534 27.1943 16.8859C27.011 17.2999 26.7088 17.9231 26.2733 18.6437C25.8924 19.2739 26.0946 20.0936 26.7248 20.4745C27.355 20.8553 28.1747 20.6532 28.5556 20.023C29.097 19.127 29.4644 18.3549 29.6804 17.8565C29.9897 17.1428 29.9448 16.3393 29.568 15.6664C29.0078 14.666 27.6146 12.3871 25.473 10.2981L23.5872 12.1838Z" fill="#F9FAFB"/>
<path d="M15.9998 12C16.0749 12 16.1496 12.0016 16.224 12.0046L10.6711 17.5575C10.6681 17.4831 10.6665 17.4084 10.6665 17.3333C10.6665 14.3878 13.0543 12 15.9998 12Z" fill="#F9FAFB"/>
<path d="M15.9998 22.6667C15.1562 22.6667 14.3582 22.4708 13.6491 22.122L20.7885 14.9826C21.1373 15.6917 21.3332 16.4897 21.3332 17.3333C21.3332 20.2789 18.9454 22.6667 15.9998 22.6667Z" fill="#F9FAFB"/>
</svg>
