<svg width="14" height="12" viewBox="0 0 14 12" fill="none" xmlns="http://www.w3.org/2000/svg">
<path d="M0.333252 1.00002C0.333252 0.539783 0.706348 0.166687 1.16659 0.166687H12.8333C13.2935 0.166687 13.6666 0.539783 13.6666 1.00002C13.6666 1.46026 13.2935 1.83335 12.8333 1.83335H1.16659C0.706348 1.83335 0.333252 1.46026 0.333252 1.00002Z" fill="#344054" style="fill:#344054;fill:color(display-p3 0.2039 0.2510 0.3294);fill-opacity:1;"/>
<path d="M1.99992 6.00002C1.99992 5.53978 2.37301 5.16669 2.83325 5.16669H11.1666C11.6268 5.16669 11.9999 5.53978 11.9999 6.00002C11.9999 6.46026 11.6268 6.83335 11.1666 6.83335H2.83325C2.37301 6.83335 1.99992 6.46026 1.99992 6.00002Z" fill="#344054" style="fill:#344054;fill:color(display-p3 0.2039 0.2510 0.3294);fill-opacity:1;"/>
<path d="M4.49992 10.1667C4.03968 10.1667 3.66659 10.5398 3.66659 11C3.66659 11.4603 4.03968 11.8334 4.49992 11.8334H9.49992C9.96016 11.8334 10.3333 11.4603 10.3333 11C10.3333 10.5398 9.96016 10.1667 9.49992 10.1667H4.49992Z" fill="#344054" style="fill:#344054;fill:color(display-p3 0.2039 0.2510 0.3294);fill-opacity:1;"/>
</svg>
