<svg width="20" height="14" viewBox="0 0 20 14" fill="none" xmlns="http://www.w3.org/2000/svg">
<path d="M4.16671 2.41683C3.70647 2.41683 3.33337 2.78993 3.33337 3.25016C3.33337 3.7104 3.70647 4.0835 4.16671 4.0835H5.83337C6.29361 4.0835 6.66671 3.7104 6.66671 3.25016C6.66671 2.78993 6.29361 2.41683 5.83337 2.41683H4.16671Z" fill="#667185" style="fill:#667185;fill:color(display-p3 0.4000 0.4431 0.5216);fill-opacity:1;"/>
<path d="M13.3334 3.25016C13.3334 2.78993 13.7065 2.41683 14.1667 2.41683H15.8334C16.2936 2.41683 16.6667 2.78993 16.6667 3.25016C16.6667 3.7104 16.2936 4.0835 15.8334 4.0835H14.1667C13.7065 4.0835 13.3334 3.7104 13.3334 3.25016Z" fill="#667185" style="fill:#667185;fill:color(display-p3 0.4000 0.4431 0.5216);fill-opacity:1;"/>
<path d="M4.16671 9.91683C3.70647 9.91683 3.33337 10.2899 3.33337 10.7502C3.33337 11.2104 3.70647 11.5835 4.16671 11.5835H5.83337C6.29361 11.5835 6.66671 11.2104 6.66671 10.7502C6.66671 10.2899 6.29361 9.91683 5.83337 9.91683H4.16671Z" fill="#667185" style="fill:#667185;fill:color(display-p3 0.4000 0.4431 0.5216);fill-opacity:1;"/>
<path d="M13.3334 10.7502C13.3334 10.2899 13.7065 9.91683 14.1667 9.91683H15.8334C16.2936 9.91683 16.6667 10.2899 16.6667 10.7502C16.6667 11.2104 16.2936 11.5835 15.8334 11.5835H14.1667C13.7065 11.5835 13.3334 11.2104 13.3334 10.7502Z" fill="#667185" style="fill:#667185;fill:color(display-p3 0.4000 0.4431 0.5216);fill-opacity:1;"/>
<path fill-rule="evenodd" clip-rule="evenodd" d="M10 4.50016C11.3808 4.50016 12.5 5.61945 12.5 7.00016C12.5 8.38087 11.3808 9.50016 10 9.50016C8.61933 9.50016 7.50004 8.38087 7.50004 7.00016C7.50004 5.61945 8.61933 4.50016 10 4.50016ZM10.8334 7.00016C10.8334 6.53993 10.4603 6.16683 10 6.16683C9.5398 6.16683 9.16671 6.53993 9.16671 7.00016C9.16671 7.4604 9.5398 7.8335 10 7.8335C10.4603 7.8335 10.8334 7.4604 10.8334 7.00016Z" fill="#667185" style="fill:#667185;fill:color(display-p3 0.4000 0.4431 0.5216);fill-opacity:1;"/>
<path fill-rule="evenodd" clip-rule="evenodd" d="M4.16671 0.333496C2.32576 0.333496 0.833374 1.82588 0.833374 3.66683V10.3335C0.833374 12.1744 2.32576 13.6668 4.16671 13.6668H15.8334C17.6743 13.6668 19.1667 12.1744 19.1667 10.3335V3.66683C19.1667 1.82588 17.6743 0.333496 15.8334 0.333496H4.16671ZM2.50004 3.66683C2.50004 2.74635 3.24623 2.00016 4.16671 2.00016H15.8334C16.7538 2.00016 17.5 2.74635 17.5 3.66683V10.3335C17.5 11.254 16.7538 12.0002 15.8334 12.0002H4.16671C3.24623 12.0002 2.50004 11.254 2.50004 10.3335V3.66683Z" fill="#667185" style="fill:#667185;fill:color(display-p3 0.4000 0.4431 0.5216);fill-opacity:1;"/>
</svg>
