<svg width="24" height="24" viewBox="0 0 24 24" fill="none" xmlns="http://www.w3.org/2000/svg">
<path d="M20.6799 13.91V13.9C19.7999 12.97 18.5699 12.4 17.1999 12.4C14.5499 12.4 12.3999 14.55 12.3999 17.2C12.3999 18.43 12.8699 19.55 13.6299 20.4C14.5099 21.38 15.7799 22 17.1999 22C19.8499 22 21.9999 19.85 21.9999 17.2C21.9999 15.93 21.4999 14.77 20.6799 13.91ZM18.9899 18.01H17.9499V19.1C17.9499 19.51 17.6099 19.85 17.1999 19.85C16.7899 19.85 16.4499 19.51 16.4499 19.1V18.01H15.4099C14.9899 18.01 14.6599 17.68 14.6599 17.26C14.6599 16.85 14.9799 16.52 15.3999 16.51H16.4499V15.51C16.4499 15.49 16.4499 15.47 16.4599 15.45C16.4799 15.07 16.8099 14.76 17.1999 14.76C17.5999 14.76 17.9299 15.08 17.9499 15.48V16.51H18.9899C19.4099 16.51 19.7399 16.85 19.7399 17.26C19.7399 17.68 19.4099 18.01 18.9899 18.01Z" fill="white"/>
<path opacity="0.4" d="M22 8.68997C22 9.87997 21.81 10.98 21.48 12C21.27 12.67 21 13.31 20.68 13.9C19.8 12.97 18.57 12.4 17.2 12.4C14.55 12.4 12.4 14.55 12.4 17.2C12.4 18.43 12.87 19.55 13.63 20.4C13.26 20.57 12.92 20.71 12.62 20.81C12.28 20.93 11.72 20.93 11.38 20.81C8.97001 19.99 4.10002 17 2.52002 12C2.19002 10.98 2 9.87997 2 8.68997C2 5.59997 4.49 3.09998 7.56 3.09998C9.37 3.09998 10.99 3.97996 12 5.32996C13.01 3.97996 14.63 3.09998 16.44 3.09998C19.51 3.09998 22 5.59997 22 8.68997Z" fill="white"/>
</svg>
