<svg width="20" height="18" viewBox="0 0 20 18" fill="none" xmlns="http://www.w3.org/2000/svg">
<path fill-rule="evenodd" clip-rule="evenodd" d="M11.9121 0.987326C10.7644 0.183913 9.23678 0.183911 8.08905 0.987325L2.35773 4.99925C1.39222 5.67511 0.855367 6.81058 0.945758 7.98567L1.53327 15.6234C1.64408 17.0638 2.94925 18.1108 4.37946 17.9065L7.02081 17.5292C8.25243 17.3532 9.16726 16.2984 9.16726 15.0543V13.9998C9.16726 13.5396 9.54035 13.1665 10.0006 13.1665C10.4608 13.1665 10.8339 13.5396 10.8339 13.9998V15.0543C10.8339 16.2984 11.7487 17.3532 12.9804 17.5292L15.6217 17.9065C17.0519 18.1108 18.3571 17.0639 18.4679 15.6234L19.0554 7.98568C19.1458 6.81059 18.609 5.67511 17.6434 4.99925L11.9121 0.987326ZM9.04482 2.35271C9.61868 1.95101 10.3825 1.95101 10.9564 2.35271L16.6877 6.36463C17.1704 6.70256 17.4389 7.2703 17.3937 7.85785L16.8061 15.4955C16.7692 15.9757 16.3342 16.3247 15.8574 16.2566L13.2161 15.8793C12.8055 15.8206 12.5006 15.469 12.5006 15.0543V13.9998C12.5006 12.6191 11.3813 11.4998 10.0006 11.4998C8.61988 11.4998 7.50059 12.6191 7.50059 13.9998V15.0543C7.50059 15.469 7.19565 15.8206 6.78511 15.8793L4.14376 16.2566C3.66703 16.3247 3.23197 15.9757 3.19503 15.4955L2.60752 7.85785C2.56232 7.2703 2.83075 6.70256 3.3135 6.36463L9.04482 2.35271Z" fill="#667185" style="fill:#667185;fill:color(display-p3 0.4000 0.4431 0.5216);fill-opacity:1;"/>
</svg>
