<svg width="18" height="18" viewBox="0 0 18 18" fill="none" xmlns="http://www.w3.org/2000/svg">
<path opacity="0.4" d="M7.55295 2.11489L2.35544 6.27739C1.77044 6.74239 1.39544 7.72489 1.52294 8.45989L2.52044 14.4299C2.70044 15.4949 3.72044 16.3574 4.80044 16.3574H13.2004C14.2729 16.3574 15.3004 15.4874 15.4804 14.4299L16.4779 8.45989C16.5979 7.72489 16.2229 6.74239 15.6454 6.27739L10.4479 2.12238C9.64544 1.47738 8.34795 1.47739 7.55295 2.11489Z" fill="#292D32"/>
<path d="M9 11.625C10.0355 11.625 10.875 10.7855 10.875 9.75C10.875 8.71447 10.0355 7.875 9 7.875C7.96447 7.875 7.125 8.71447 7.125 9.75C7.125 10.7855 7.96447 11.625 9 11.625Z" fill="#292D32"/>
</svg>
