<svg width="74" height="74" viewBox="0 0 74 74" fill="none" xmlns="http://www.w3.org/2000/svg">
<path d="M10.4904 42.7077L10.411 43.2276L10.7828 43.5994L38.918 71.7346L39.6527 72.4693L40.3875 71.7346L71.7347 40.3874L72.4694 39.6527L71.7347 38.918L43.2531 10.4364L42.8745 10.0578L42.3466 10.1464L15.5018 14.6488L14.7602 14.7732L14.6466 15.5165L10.4904 42.7077Z" fill="#ED2224" stroke="white" style="fill:#ED2224;fill:color(display-p3 0.9294 0.1333 0.1412);fill-opacity:1;stroke:white;stroke-opacity:1;" stroke-width="2.07805"/>
<path d="M30.3938 20.18C31.2573 20.18 31.9516 20.4466 32.4765 20.98C33.0098 21.5049 33.2765 22.2415 33.2765 23.1897V27.3169H31.4986V23.4309C31.4986 22.8806 31.3589 22.4616 31.0796 22.1737C30.8002 21.8774 30.4192 21.7293 29.9366 21.7293C29.4541 21.7293 29.0689 21.8774 28.781 22.1737C28.5016 22.4616 28.3619 22.8806 28.3619 23.4309V27.3169H26.584V23.4309C26.584 22.8806 26.4444 22.4616 26.165 22.1737C25.8856 21.8774 25.5046 21.7293 25.022 21.7293C24.531 21.7293 24.1416 21.8774 23.8537 22.1737C23.5743 22.4616 23.4346 22.8806 23.4346 23.4309V27.3169H21.6568V20.2815H23.4346V21.1324C23.6632 20.8361 23.9553 20.6033 24.3109 20.4339C24.6749 20.2646 25.0728 20.18 25.5046 20.18C26.0549 20.18 26.5459 20.2985 26.9777 20.5355C27.4095 20.7641 27.7439 21.0943 27.981 21.5261C28.2095 21.1197 28.5397 20.7937 28.9715 20.5482C29.4117 20.3027 29.8858 20.18 30.3938 20.18ZM41.6942 20.2815L37.3384 30.6441H35.4462L36.9701 27.1391L34.1509 20.2815H36.1446L37.9606 25.1961L39.802 20.2815H41.6942ZM25.6189 31.18C26.1523 31.18 26.6264 31.2985 27.0412 31.5355C27.4561 31.7641 27.7778 32.107 28.0064 32.5642C28.2434 33.0129 28.3619 33.5547 28.3619 34.1897V38.3169H26.584V34.4309C26.584 33.8722 26.4444 33.4446 26.165 33.1483C25.8856 32.8435 25.5046 32.6912 25.022 32.6912C24.531 32.6912 24.1416 32.8435 23.8537 33.1483C23.5743 33.4446 23.4346 33.8722 23.4346 34.4309V38.3169H21.6568V28.9195H23.4346V32.1578C23.6632 31.853 23.968 31.616 24.349 31.4466C24.73 31.2688 25.1533 31.18 25.6189 31.18ZM33.1766 38.4312C32.4993 38.4312 31.8898 38.283 31.3479 37.9867C30.8061 37.6819 30.3786 37.2544 30.0653 36.7041C29.7605 36.1538 29.6081 35.5188 29.6081 34.7992C29.6081 34.0796 29.7648 33.4446 30.078 32.8943C30.3997 32.344 30.8357 31.9207 31.386 31.6244C31.9363 31.3196 32.5501 31.1673 33.2274 31.1673C33.9047 31.1673 34.5185 31.3196 35.0688 31.6244C35.6191 31.9207 36.0509 32.344 36.3641 32.8943C36.6858 33.4446 36.8467 34.0796 36.8467 34.7992C36.8467 35.5188 36.6816 36.1538 36.3514 36.7041C36.0297 37.2544 35.5895 37.6819 35.0307 37.9867C34.4804 38.283 33.8624 38.4312 33.1766 38.4312ZM33.1766 36.8819C33.4983 36.8819 33.7989 36.8057 34.0783 36.6533C34.3661 36.4924 34.5947 36.2554 34.764 35.9421C34.9333 35.6289 35.018 35.2479 35.018 34.7992C35.018 34.1304 34.8402 33.6182 34.4846 33.2626C34.1375 32.8986 33.71 32.7166 33.202 32.7166C32.694 32.7166 32.2665 32.8986 31.9194 33.2626C31.5807 33.6182 31.4114 34.1304 31.4114 34.7992C31.4114 35.468 31.5765 35.9845 31.9067 36.3485C32.2453 36.7041 32.6686 36.8819 33.1766 36.8819ZM46.8879 31.18C47.7514 31.18 48.4456 31.4466 48.9705 31.98C49.5039 32.5049 49.7706 33.2415 49.7706 34.1897V38.3169H47.9927V34.4309C47.9927 33.8806 47.853 33.4616 47.5736 33.1737C47.2942 32.8774 46.9133 32.7293 46.4307 32.7293C45.9481 32.7293 45.5629 32.8774 45.2751 33.1737C44.9957 33.4616 44.856 33.8806 44.856 34.4309V38.3169H43.0781V34.4309C43.0781 33.8806 42.9384 33.4616 42.659 33.1737C42.3796 32.8774 41.9987 32.7293 41.5161 32.7293C41.0251 32.7293 40.6356 32.8774 40.3478 33.1737C40.0684 33.4616 39.9287 33.8806 39.9287 34.4309V38.3169H38.1508V31.2815H39.9287V32.1324C40.1573 31.8361 40.4494 31.6033 40.8049 31.4339C41.169 31.2646 41.5669 31.18 41.9987 31.18C42.549 31.18 43.04 31.2985 43.4718 31.5355C43.9035 31.7641 44.238 32.0943 44.475 32.5261C44.7036 32.1197 45.0338 31.7937 45.4655 31.5482C45.9058 31.3027 46.3799 31.18 46.8879 31.18ZM57.9978 34.6468C57.9978 34.9008 57.9808 35.1294 57.947 35.3326H52.8038C52.8461 35.8406 53.0239 36.2385 53.3372 36.5263C53.6504 36.8142 54.0356 36.9581 54.4928 36.9581C55.1531 36.9581 55.623 36.6745 55.9024 36.1072H57.82C57.6168 36.7845 57.2273 37.3433 56.6516 37.7835C56.076 38.2153 55.369 38.4312 54.5309 38.4312C53.8536 38.4312 53.244 38.283 52.7022 37.9867C52.1688 37.6819 51.7498 37.2544 51.445 36.7041C51.1487 36.1538 51.0005 35.5188 51.0005 34.7992C51.0005 34.0711 51.1487 33.4319 51.445 32.8816C51.7413 32.3313 52.1561 31.908 52.6895 31.6117C53.2229 31.3154 53.8367 31.1673 54.5309 31.1673C55.1997 31.1673 55.7966 31.3112 56.3215 31.599C56.8548 31.8869 57.2654 32.2975 57.5533 32.8308C57.8496 33.3557 57.9978 33.9611 57.9978 34.6468ZM56.1564 34.1389C56.1479 33.6817 55.9828 33.3176 55.6611 33.0467C55.3394 32.7674 54.9457 32.6277 54.4801 32.6277C54.0398 32.6277 53.6673 32.7631 53.3626 33.034C53.0662 33.2965 52.8842 33.6648 52.8165 34.1389H56.1564ZM28.1968 45.6468C28.1968 45.9008 28.1799 46.1294 28.146 46.3326H23.0029C23.0452 46.8406 23.223 47.2385 23.5362 47.5263C23.8495 47.8142 24.2347 47.9581 24.6919 47.9581C25.3522 47.9581 25.8221 47.6745 26.1015 47.1072H28.0191C27.8159 47.7845 27.4264 48.3433 26.8507 48.7835C26.275 49.2153 25.5681 49.4312 24.73 49.4312C24.0527 49.4312 23.4431 49.283 22.9013 48.9867C22.3679 48.6819 21.9488 48.2544 21.6441 47.7041C21.3477 47.1538 21.1996 46.5188 21.1996 45.7992C21.1996 45.0711 21.3477 44.4319 21.6441 43.8816C21.9404 43.3313 22.3552 42.908 22.8886 42.6117C23.4219 42.3154 24.0357 42.1673 24.73 42.1673C25.3988 42.1673 25.9956 42.3112 26.5205 42.599C27.0539 42.8869 27.4645 43.2975 27.7524 43.8308C28.0487 44.3557 28.1968 44.9611 28.1968 45.6468ZM26.3555 45.1389C26.347 44.6817 26.1819 44.3176 25.8602 44.0467C25.5385 43.7674 25.1448 43.6277 24.6792 43.6277C24.2389 43.6277 23.8664 43.7631 23.5616 44.034C23.2653 44.2965 23.0833 44.6648 23.0156 45.1389H26.3555ZM31.5645 43.742V47.1453C31.5645 47.3824 31.6195 47.5559 31.7296 47.666C31.8481 47.7676 32.0428 47.8184 32.3138 47.8184H33.1392V49.3169H32.0217C30.5232 49.3169 29.7739 48.5888 29.7739 47.1326V43.742H28.9358V42.2815H29.7739V40.5418H31.5645V42.2815H33.1392V43.742H31.5645ZM33.9608 45.7738C33.9608 45.0627 34.1005 44.4319 34.3799 43.8816C34.6677 43.3313 35.0529 42.908 35.5355 42.6117C36.0265 42.3154 36.5726 42.1673 37.1737 42.1673C37.6986 42.1673 38.1557 42.2731 38.5452 42.4847C38.9431 42.6964 39.2606 42.9631 39.4976 43.2848V42.2815H41.2882V49.3169H39.4976V48.2883C39.269 48.6184 38.9516 48.8936 38.5452 49.1137C38.1473 49.3254 37.6859 49.4312 37.161 49.4312C36.5683 49.4312 36.0265 49.2788 35.5355 48.974C35.0529 48.6692 34.6677 48.2417 34.3799 47.6914C34.1005 47.1326 33.9608 46.4934 33.9608 45.7738ZM39.4976 45.7992C39.4976 45.3674 39.413 44.9992 39.2436 44.6944C39.0743 44.3811 38.8457 44.1441 38.5579 43.9832C38.27 43.8139 37.961 43.7293 37.6308 43.7293C37.3007 43.7293 36.9959 43.8097 36.7165 43.9705C36.4371 44.1314 36.2085 44.3684 36.0308 44.6817C35.8614 44.9865 35.7768 45.3505 35.7768 45.7738C35.7768 46.1971 35.8614 46.5696 36.0308 46.8914C36.2085 47.2046 36.4371 47.4459 36.7165 47.6152C37.0044 47.7845 37.3091 47.8692 37.6308 47.8692C37.961 47.8692 38.27 47.7888 38.5579 47.6279C38.8457 47.4586 39.0743 47.2215 39.2436 46.9167C39.413 46.6035 39.4976 46.231 39.4976 45.7992ZM44.8025 39.9195V49.3169H43.0246V39.9195H44.8025Z" fill="white" style="fill:white;fill-opacity:1;"/>
</svg>
