<svg width="20" height="20" viewBox="0 0 20 20" fill="none" xmlns="http://www.w3.org/2000/svg">
<path d="M4.41075 12.4664C4.08532 12.7918 4.08532 13.3194 4.41075 13.6449C4.73619 13.9703 5.26383 13.9703 5.58927 13.6449L8.38982 10.8443L9.4729 11.7289C9.81323 12.0068 10.3109 11.9727 10.6102 11.651L13.3357 8.72103L14.3921 9.84781C14.7068 10.1836 15.2342 10.2006 15.57 9.8858C15.9057 9.57103 15.9227 9.04366 15.608 8.7079L13.9413 6.93013C13.7834 6.76167 13.5626 6.6663 13.3317 6.66674C13.1008 6.66719 12.8805 6.76343 12.7232 6.93249L9.92199 9.94378L8.86045 9.07686C8.52908 8.80623 8.04661 8.83052 7.74409 9.13304L4.41075 12.4664Z" fill="black" style="fill:black;fill-opacity:1;"/>
<path fill-rule="evenodd" clip-rule="evenodd" d="M4.16668 2.5C2.32573 2.5 0.833344 3.99239 0.833344 5.83333V14.1667C0.833344 16.0076 2.32573 17.5 4.16668 17.5H15.8333C17.6743 17.5 19.1667 16.0076 19.1667 14.1667V5.83333C19.1667 3.99239 17.6743 2.5 15.8333 2.5H4.16668ZM2.50001 5.83333C2.50001 4.91286 3.2462 4.16667 4.16668 4.16667H15.8333C16.7538 4.16667 17.5 4.91286 17.5 5.83333V14.1667C17.5 15.0871 16.7538 15.8333 15.8333 15.8333H4.16668C3.2462 15.8333 2.50001 15.0871 2.50001 14.1667V5.83333Z" fill="black" style="fill:black;fill-opacity:1;"/>
</svg>
