<svg width="18" height="18" viewBox="0 0 18 18" fill="none" xmlns="http://www.w3.org/2000/svg">
<path opacity="0.4" d="M6.75 1.5C4.785 1.5 3.1875 3.0975 3.1875 5.0625C3.1875 6.99 4.695 8.55 6.66 8.6175C6.72 8.61 6.78 8.61 6.825 8.6175C6.84 8.6175 6.8475 8.6175 6.8625 8.6175C6.87 8.6175 6.87 8.6175 6.8775 8.6175C8.7975 8.55 10.305 6.99 10.3125 5.0625C10.3125 3.0975 8.715 1.5 6.75 1.5Z" fill="#292D32"/>
<path d="M10.5597 10.6124C8.46723 9.21741 5.05473 9.21741 2.94723 10.6124C1.99473 11.2499 1.46973 12.1124 1.46973 13.0349C1.46973 13.9574 1.99473 14.8124 2.93973 15.4424C3.98973 16.1474 5.36973 16.4999 6.74973 16.4999C8.12973 16.4999 9.50973 16.1474 10.5597 15.4424C11.5047 14.8049 12.0297 13.9499 12.0297 13.0199C12.0222 12.0974 11.5047 11.2424 10.5597 10.6124Z" fill="#292D32"/>
<path opacity="0.4" d="M14.992 5.50508C15.112 6.96008 14.077 8.23508 12.6445 8.40758C12.637 8.40758 12.637 8.40758 12.6295 8.40758H12.607C12.562 8.40758 12.517 8.40757 12.4795 8.42257C11.752 8.46007 11.0845 8.22757 10.582 7.80007C11.3545 7.11007 11.797 6.07507 11.707 4.95007C11.6545 4.34257 11.4445 3.78757 11.1295 3.31507C11.4145 3.17257 11.7445 3.08257 12.082 3.05257C13.552 2.92507 14.8645 4.02007 14.992 5.50508Z" fill="#292D32"/>
<path d="M16.4922 12.4426C16.4322 13.1701 15.9672 13.8001 15.1872 14.2276C14.4372 14.6401 13.4922 14.8351 12.5547 14.8126C13.0947 14.3251 13.4097 13.7176 13.4697 13.0726C13.5447 12.1426 13.1022 11.2501 12.2172 10.5376C11.7147 10.1401 11.1297 9.82505 10.4922 9.59255C12.1497 9.11255 14.2347 9.43505 15.5172 10.4701C16.2072 11.0251 16.5597 11.7226 16.4922 12.4426Z" fill="#292D32"/>
</svg>
