<svg width="16" height="16" viewBox="0 0 16 16" fill="none" xmlns="http://www.w3.org/2000/svg">
<path opacity="0.4" d="M14.2468 7.59334V11.5867C14.2468 13.4267 12.7534 14.92 10.9134 14.92H5.08675C3.24675 14.92 1.75342 13.4267 1.75342 11.5867V7.64001C2.26008 8.18668 2.98008 8.50001 3.76008 8.50001C4.60008 8.50001 5.40675 8.08001 5.91342 7.40668C6.36675 8.08001 7.14008 8.50001 8.00008 8.50001C8.85342 8.50001 9.61342 8.10001 10.0734 7.43334C10.5868 8.09334 11.3801 8.50001 12.2068 8.50001C13.0134 8.50001 13.7468 8.17334 14.2468 7.59334Z" fill="#292D32"/>
<path d="M9.9934 0.833344H5.9934L5.50006 5.74001C5.46006 6.19334 5.52673 6.62001 5.6934 7.00668C6.08006 7.91334 6.98673 8.50001 8.00006 8.50001C9.02673 8.50001 9.9134 7.92668 10.3134 7.01334C10.4334 6.72668 10.5067 6.39334 10.5134 6.05334V5.92668L9.9934 0.833344Z" fill="#292D32"/>
<path opacity="0.6" d="M14.9068 5.51334L14.7135 3.66668C14.4335 1.65334 13.5202 0.833344 11.5668 0.833344H9.00684L9.50017 5.83334C9.50684 5.90001 9.5135 5.97334 9.5135 6.10001C9.5535 6.44668 9.66017 6.76668 9.82017 7.05334C10.3002 7.93334 11.2335 8.50001 12.2068 8.50001C13.0935 8.50001 13.8935 8.10668 14.3935 7.41334C14.7935 6.88001 14.9735 6.20668 14.9068 5.51334Z" fill="#292D32"/>
<path opacity="0.6" d="M4.3931 0.833344C2.4331 0.833344 1.52643 1.65334 1.23977 3.68668L1.05977 5.52001C0.9931 6.23334 1.18643 6.92668 1.60643 7.46668C2.1131 8.12668 2.8931 8.50001 3.75977 8.50001C4.7331 8.50001 5.66643 7.93334 6.13977 7.06668C6.3131 6.76668 6.42643 6.42001 6.45977 6.06001L6.97977 0.84001H4.3931V0.833344Z" fill="#292D32"/>
<path d="M7.56675 11.1067C6.72008 11.1933 6.08008 11.9133 6.08008 12.7667V14.92H9.91341V13C9.92008 11.6067 9.10008 10.9467 7.56675 11.1067Z" fill="#292D32"/>
</svg>
