<svg width="18" height="18" viewBox="0 0 18 18" fill="none" xmlns="http://www.w3.org/2000/svg">
<path d="M13.5 9.75C12.795 9.75 12.1425 9.9975 11.625 10.41C10.935 10.9575 10.5 11.805 10.5 12.75C10.5 13.3125 10.6575 13.845 10.935 14.295C11.4525 15.165 12.405 15.75 13.5 15.75C14.2575 15.75 14.9475 15.4725 15.4725 15C15.705 14.805 15.9075 14.565 16.065 14.295C16.3425 13.845 16.5 13.3125 16.5 12.75C16.5 11.0925 15.1575 9.75 13.5 9.75ZM15.0525 12.4275L13.455 13.905C13.35 14.0025 13.2075 14.055 13.0725 14.055C12.93 14.055 12.7875 14.0025 12.675 13.89L11.9325 13.1475C11.715 12.93 11.715 12.57 11.9325 12.3525C12.15 12.135 12.51 12.135 12.7275 12.3525L13.0875 12.7125L14.2875 11.6025C14.5125 11.3925 14.8725 11.4075 15.0825 11.6325C15.2925 11.8575 15.2775 12.21 15.0525 12.4275Z" fill="#292D32"/>
<path opacity="0.4" d="M15.8176 16.125C15.8176 16.335 15.6526 16.5 15.4426 16.5H2.55762C2.34762 16.5 2.18262 16.335 2.18262 16.125C2.18262 13.02 5.24261 10.5 9.00011 10.5C9.77261 10.5 10.5226 10.605 11.2126 10.8075C10.7701 11.3325 10.5001 12.015 10.5001 12.75C10.5001 13.3125 10.6576 13.845 10.9351 14.295C11.0851 14.55 11.2801 14.7825 11.5051 14.9775C12.0301 15.4575 12.7276 15.75 13.5001 15.75C14.3401 15.75 15.0976 15.405 15.6376 14.85C15.7576 15.255 15.8176 15.6825 15.8176 16.125Z" fill="#292D32"/>
<path d="M9 9C11.0711 9 12.75 7.32107 12.75 5.25C12.75 3.17893 11.0711 1.5 9 1.5C6.92893 1.5 5.25 3.17893 5.25 5.25C5.25 7.32107 6.92893 9 9 9Z" fill="#292D32"/>
</svg>
