<svg width="20" height="15" viewBox="0 0 20 15" fill="none" xmlns="http://www.w3.org/2000/svg">
<path fill-rule="evenodd" clip-rule="evenodd" d="M9.99998 0.166504C8.15903 0.166504 6.66665 1.65889 6.66665 3.49984C6.66665 5.34079 8.15903 6.83317 9.99998 6.83317C11.8409 6.83317 13.3333 5.34079 13.3333 3.49984C13.3333 1.65889 11.8409 0.166504 9.99998 0.166504ZM8.33331 3.49984C8.33331 2.57936 9.07951 1.83317 9.99998 1.83317C10.9205 1.83317 11.6666 2.57936 11.6666 3.49984C11.6666 4.42031 10.9205 5.1665 9.99998 5.1665C9.07951 5.1665 8.33331 4.42031 8.33331 3.49984Z" fill="black" style="fill:black;fill-opacity:1;"/>
<path fill-rule="evenodd" clip-rule="evenodd" d="M9.99998 14.3332C9.05258 14.3332 7.68654 14.1093 6.64985 13.6328C6.14131 13.3991 5.59567 13.0525 5.27381 12.5339C5.1039 12.2602 4.99655 11.9374 5.00006 11.5782C5.00354 11.2225 5.11511 10.8851 5.2978 10.5759C6.1332 9.16211 7.86627 7.6665 9.99998 7.6665C12.1337 7.6665 13.8668 9.16211 14.7022 10.5759C14.8848 10.8851 14.9964 11.2225 14.9999 11.5782C15.0034 11.9374 14.8961 12.2602 14.7262 12.5339C14.4043 13.0525 13.8586 13.3991 13.3501 13.6328C12.3134 14.1093 10.9474 14.3332 9.99998 14.3332ZM6.7327 11.4238C6.66887 11.5318 6.66674 11.5854 6.66665 11.5945C6.66658 11.6006 6.66637 11.6171 6.68991 11.655C6.75608 11.7617 6.94823 11.9357 7.3458 12.1184C8.12131 12.4748 9.24068 12.6665 9.99998 12.6665C10.7593 12.6665 11.8786 12.4748 12.6542 12.1184C13.0517 11.9357 13.2439 11.7617 13.31 11.655C13.3336 11.6171 13.3334 11.601 13.3333 11.595C13.3332 11.5858 13.3311 11.5318 13.2673 11.4238C12.6196 10.3277 11.3529 9.33317 9.99998 9.33317C8.64705 9.33317 7.38037 10.3277 6.7327 11.4238Z" fill="black" style="fill:black;fill-opacity:1;"/>
<path fill-rule="evenodd" clip-rule="evenodd" d="M2.08331 5.99984C2.08331 4.61913 3.2026 3.49984 4.58331 3.49984C5.96403 3.49984 7.08331 4.61913 7.08331 5.99984C7.08331 7.38055 5.96403 8.49984 4.58331 8.49984C3.2026 8.49984 2.08331 7.38055 2.08331 5.99984ZM4.58331 5.1665C4.12308 5.1665 3.74998 5.5396 3.74998 5.99984C3.74998 6.46008 4.12308 6.83317 4.58331 6.83317C5.04355 6.83317 5.41665 6.46008 5.41665 5.99984C5.41665 5.5396 5.04355 5.1665 4.58331 5.1665Z" fill="black" style="fill:black;fill-opacity:1;"/>
<path d="M2.41309 12.2037C2.20847 12.6159 1.7084 12.7842 1.29615 12.5796C0.883904 12.375 0.715585 11.8749 0.920204 11.4627C1.22636 10.8459 1.68975 10.2266 2.27269 9.7527C2.85585 9.27865 3.60312 8.9165 4.45596 8.9165C4.91619 8.9165 5.28929 9.2896 5.28929 9.74984C5.28929 10.2101 4.91619 10.5832 4.45596 10.5832C4.08847 10.5832 3.70063 10.7398 3.32398 11.046C2.94711 11.3523 2.62601 11.7747 2.41309 12.2037Z" fill="black" style="fill:black;fill-opacity:1;"/>
<path fill-rule="evenodd" clip-rule="evenodd" d="M13.175 5.99984C13.175 4.61913 14.2943 3.49984 15.675 3.49984C17.0557 3.49984 18.175 4.61913 18.175 5.99984C18.175 7.38055 17.0557 8.49984 15.675 8.49984C14.2943 8.49984 13.175 7.38055 13.175 5.99984ZM15.675 5.1665C15.2148 5.1665 14.8417 5.5396 14.8417 5.99984C14.8417 6.46008 15.2148 6.83317 15.675 6.83317C16.1353 6.83317 16.5084 6.46008 16.5084 5.99984C16.5084 5.5396 16.1353 5.1665 15.675 5.1665Z" fill="black" style="fill:black;fill-opacity:1;"/>
<path d="M19.0834 11.4627C19.288 11.8749 19.1197 12.375 18.7075 12.5796C18.2952 12.7842 17.7952 12.6159 17.5905 12.2037C17.3776 11.7747 17.0565 11.3523 16.6796 11.046C16.303 10.7398 15.9152 10.5832 15.5477 10.5832C15.0874 10.5832 14.7143 10.2101 14.7143 9.74984C14.7143 9.2896 15.0874 8.9165 15.5477 8.9165C16.4005 8.9165 17.1478 9.27865 17.7309 9.7527C18.3139 10.2266 18.7773 10.8459 19.0834 11.4627Z" fill="black" style="fill:black;fill-opacity:1;"/>
</svg>
